<svg xmlns="http://www.w3.org/2000/svg" xmlns:xlink="http://www.w3.org/1999/xlink" width="500" zoomAndPan="magnify" viewBox="0 0 375 374.999991" height="500" preserveAspectRatio="xMidYMid meet" version="1.0"><defs><g/><clipPath id="df5d09f855"><path d="M 37.5 61.6875 L 337.5 61.6875 L 337.5 313.6875 L 37.5 313.6875 Z M 37.5 61.6875 " clip-rule="nonzero"/></clipPath><clipPath id="9675e959b4"><path d="M 37.5 121 L 139 121 L 139 313.6875 L 37.5 313.6875 Z M 37.5 121 " clip-rule="nonzero"/></clipPath></defs><g clip-path="url(#df5d09f855)"><path fill="#f20162" d="M 336.773438 77.714844 C 336.664062 72.949219 336.117188 68.21875 335.753906 63.453125 C 335.679688 62.765625 335.355469 62.074219 334.773438 61.707031 C 329.898438 71.785156 323.859375 81.242188 318.367188 90.957031 C 315.890625 88.554688 313.601562 86.046875 311.273438 83.535156 C 303.050781 75.132812 293.082031 68.765625 282.863281 63.054688 C 292.71875 86.664062 294.503906 113.074219 290.5 138.171875 C 287.335938 158.070312 280.605469 177.351562 270.785156 194.921875 C 262.601562 209.582031 252.269531 223.039062 239.9375 234.425781 C 226.988281 246.320312 211.78125 255.960938 194.976562 261.34375 C 177.476562 267.054688 158.015625 267.675781 140.554688 261.417969 C 125.058594 256.035156 111.671875 245.410156 102.070312 232.242188 C 105.015625 229.1875 108.109375 226.277344 111.019531 223.222656 C 116.039062 217.582031 120.695312 211.652344 125.132812 205.542969 C 130.40625 198.160156 133.5 189.535156 136.226562 180.953125 C 137.535156 175.859375 138.480469 170.585938 138.265625 165.308594 C 137.683594 156.90625 134.917969 148.722656 130.589844 141.484375 C 128.625 137.882812 126.078125 134.609375 123.09375 131.808594 C 120.003906 128.933594 116.945312 125.949219 113.238281 123.914062 C 111.308594 122.820312 109.164062 122.128906 107.050781 121.402344 C 105.199219 120.421875 102.941406 120.640625 100.90625 120.347656 C 94.867188 119.402344 88.792969 121.183594 83.371094 123.730469 C 73.769531 128.351562 65.910156 136.097656 60.234375 145.046875 C 54.378906 154.324219 50.742188 164.910156 49.359375 175.785156 C 47.320312 191.683594 49.976562 208.527344 58.488281 222.277344 C 58.890625 223.039062 59.472656 223.660156 60.273438 223.984375 C 54.378906 230.023438 49.578125 237.046875 45.539062 244.429688 C 40.847656 253.085938 38.664062 262.835938 38.007812 272.585938 C 37.535156 276.476562 37.574219 280.441406 37.898438 284.335938 C 38.265625 293.976562 40.519531 303.46875 43.757812 312.492188 C 43.792969 313.035156 44.265625 313.183594 44.738281 313.292969 C 45.902344 305.652344 48.121094 298.195312 51.394531 291.210938 C 52.414062 289.136719 53.324219 286.917969 54.816406 285.136719 C 56.234375 283.5 57.214844 281.535156 58.671875 279.898438 C 59.90625 284.445312 61.109375 289.101562 63.472656 293.210938 C 65.691406 297.066406 68.054688 300.851562 71.039062 304.160156 C 73.222656 306.597656 75.257812 309.21875 77.734375 311.363281 C 76.859375 305.652344 74.824219 300.160156 74.53125 294.375 C 73.984375 291.066406 74.023438 287.644531 74.605469 284.371094 C 75.1875 280.222656 76.023438 276.078125 77.40625 272.113281 C 79.515625 264.617188 82.714844 257.417969 86.789062 250.796875 C 100.6875 261.164062 115.710938 270.074219 131.789062 276.625 C 148.085938 283.28125 165.4375 287.535156 183.042969 288.410156 C 209.671875 289.902344 236.773438 282.917969 259.179688 268.328125 C 283.554688 252.722656 302.105469 229.222656 314.546875 203.324219 C 327.96875 175.351562 334.773438 144.503906 336.734375 113.65625 C 336.734375 110.308594 337.316406 106.996094 337.171875 103.652344 C 337.0625 94.957031 337.5 86.335938 336.773438 77.714844 Z M 85.410156 200.921875 C 84.390625 198.375 82.714844 196.15625 81.699219 193.648438 C 75.476562 179.425781 74.859375 162.910156 79.515625 148.140625 C 82.023438 140.464844 86.0625 132.972656 92.394531 127.804688 C 94.464844 126.058594 97.085938 125.296875 99.59375 124.421875 C 101.960938 125.695312 103.160156 128.207031 104.542969 130.386719 C 106.363281 133.589844 107.671875 137.046875 108.726562 140.574219 C 110.289062 147.085938 110.4375 153.886719 109.5625 160.472656 C 109.089844 163.671875 108.617188 166.945312 107.34375 169.964844 C 105.597656 174.113281 103.851562 178.332031 101.160156 182.007812 C 96.359375 188.628906 91.738281 195.613281 85.410156 200.921875 Z M 85.410156 200.921875 " fill-opacity="1" fill-rule="nonzero"/></g><g clip-path="url(#9675e959b4)"><path fill="#cd0455" d="M 99.59375 124.421875 C 101.996094 123.292969 105.199219 123.695312 107.015625 121.476562 C 109.125 122.203125 111.234375 122.859375 113.199219 123.984375 C 116.910156 126.023438 119.964844 129.007812 123.058594 131.878906 C 126.042969 134.679688 128.585938 137.953125 130.550781 141.554688 C 134.882812 148.757812 137.683594 156.945312 138.226562 165.382812 C 138.445312 170.65625 137.464844 175.933594 136.191406 181.023438 C 133.460938 189.609375 130.371094 198.195312 125.09375 205.617188 C 120.695312 211.726562 116 217.65625 110.980469 223.292969 C 108.070312 226.386719 104.980469 229.261719 102.03125 232.316406 C 99.230469 235.191406 96.757812 238.355469 94.101562 241.375 C 91.445312 244.355469 88.863281 247.375 86.789062 250.796875 C 82.714844 257.453125 79.515625 264.617188 77.40625 272.113281 C 76.023438 276.078125 75.1875 280.222656 74.605469 284.371094 C 74.023438 287.683594 73.984375 291.066406 74.53125 294.375 C 74.824219 300.160156 76.859375 305.652344 77.734375 311.363281 C 75.257812 309.179688 73.257812 306.5625 71.039062 304.160156 C 68.054688 300.851562 65.691406 297.066406 63.472656 293.210938 C 61.070312 289.101562 59.90625 284.445312 58.671875 279.898438 C 57.214844 281.535156 56.234375 283.5 54.816406 285.136719 C 53.289062 286.917969 52.414062 289.136719 51.394531 291.210938 C 48.121094 298.195312 45.867188 305.652344 44.738281 313.292969 C 44.300781 313.183594 43.828125 313.035156 43.757812 312.492188 C 40.519531 303.433594 38.265625 293.9375 37.898438 284.335938 C 37.574219 280.40625 37.5 276.476562 38.007812 272.585938 C 38.664062 262.835938 40.847656 253.085938 45.539062 244.464844 C 49.578125 237.082031 54.34375 230.0625 60.273438 224.023438 C 62.34375 221.621094 64.636719 219.4375 67.109375 217.4375 C 70.421875 214.710938 73.1875 211.398438 76.351562 208.488281 C 79.222656 205.796875 82.351562 203.359375 85.445312 200.886719 C 91.773438 195.574219 96.394531 188.589844 101.195312 181.972656 C 103.886719 178.296875 105.632812 174.078125 107.378906 169.929688 C 108.652344 166.910156 109.125 163.671875 109.597656 160.4375 C 110.507812 153.816406 110.328125 147.011719 108.761719 140.539062 C 107.707031 137.007812 106.433594 133.554688 104.578125 130.351562 C 103.160156 128.167969 101.960938 125.695312 99.59375 124.421875 Z M 99.59375 124.421875 " fill-opacity="1" fill-rule="nonzero"/></g><g fill="#f20162" fill-opacity="1"><g transform="translate(140.574941, 180.341429)"><g><path d="M 7.390625 0.28125 C 5.628906 0.28125 4.203125 -0.296875 3.109375 -1.453125 C 2.023438 -2.609375 1.484375 -4.125 1.484375 -6 L 1.484375 -6.8125 C 1.484375 -7.050781 1.601562 -7.171875 1.84375 -7.171875 L 3.578125 -7.171875 C 3.816406 -7.171875 3.9375 -7.050781 3.9375 -6.8125 L 3.9375 -6.109375 C 3.9375 -4.847656 4.253906 -3.832031 4.890625 -3.0625 C 5.535156 -2.300781 6.367188 -1.921875 7.390625 -1.921875 C 8.378906 -1.921875 9.203125 -2.285156 9.859375 -3.015625 C 10.523438 -3.753906 10.859375 -4.722656 10.859375 -5.921875 C 10.859375 -6.734375 10.695312 -7.425781 10.375 -8 C 10.0625 -8.582031 9.648438 -9.09375 9.140625 -9.53125 C 8.628906 -9.96875 7.785156 -10.632812 6.609375 -11.53125 C 5.421875 -12.40625 4.484375 -13.15625 3.796875 -13.78125 C 3.109375 -14.414062 2.546875 -15.171875 2.109375 -16.046875 C 1.671875 -16.921875 1.453125 -17.953125 1.453125 -19.140625 C 1.453125 -20.984375 1.984375 -22.441406 3.046875 -23.515625 C 4.117188 -24.597656 5.503906 -25.140625 7.203125 -25.140625 C 9.003906 -25.140625 10.441406 -24.550781 11.515625 -23.375 C 12.597656 -22.207031 13.140625 -20.648438 13.140625 -18.703125 L 13.140625 -17.828125 C 13.140625 -17.585938 13.019531 -17.46875 12.78125 -17.46875 L 11 -17.46875 C 10.769531 -17.46875 10.65625 -17.585938 10.65625 -17.828125 L 10.65625 -18.75 C 10.65625 -20 10.335938 -21.007812 9.703125 -21.78125 C 9.078125 -22.550781 8.242188 -22.9375 7.203125 -22.9375 C 6.253906 -22.9375 5.472656 -22.597656 4.859375 -21.921875 C 4.242188 -21.242188 3.9375 -20.289062 3.9375 -19.0625 C 3.9375 -18.332031 4.070312 -17.6875 4.34375 -17.125 C 4.613281 -16.570312 5.019531 -16.046875 5.5625 -15.546875 C 6.113281 -15.046875 6.921875 -14.394531 7.984375 -13.59375 C 9.410156 -12.550781 10.472656 -11.703125 11.171875 -11.046875 C 11.867188 -10.398438 12.40625 -9.691406 12.78125 -8.921875 C 13.15625 -8.160156 13.34375 -7.234375 13.34375 -6.140625 C 13.34375 -4.203125 12.785156 -2.644531 11.671875 -1.46875 C 10.566406 -0.300781 9.140625 0.28125 7.390625 0.28125 Z M 7.390625 0.28125 "/></g></g></g><g fill="#f20162" fill-opacity="1"><g transform="translate(155.339906, 180.341429)"><g><path d="M 12.5 0 C 12.28125 0 12.132812 -0.09375 12.0625 -0.28125 L 8.453125 -11.25 C 8.421875 -11.320312 8.375 -11.359375 8.3125 -11.359375 L 5.21875 -11.359375 C 5.125 -11.359375 5.078125 -11.3125 5.078125 -11.21875 L 5.078125 -0.359375 C 5.078125 -0.117188 4.957031 0 4.71875 0 L 2.90625 0 C 2.675781 0 2.5625 -0.117188 2.5625 -0.359375 L 2.5625 -24.5 C 2.5625 -24.726562 2.675781 -24.84375 2.90625 -24.84375 L 8.765625 -24.84375 C 10.492188 -24.84375 11.890625 -24.207031 12.953125 -22.9375 C 14.023438 -21.675781 14.5625 -20.03125 14.5625 -18 C 14.5625 -16.457031 14.226562 -15.128906 13.5625 -14.015625 C 12.894531 -12.910156 11.992188 -12.128906 10.859375 -11.671875 C 10.765625 -11.648438 10.726562 -11.59375 10.75 -11.5 L 14.625 -0.390625 L 14.65625 -0.25 C 14.65625 -0.0820312 14.550781 0 14.34375 0 Z M 5.21875 -22.65625 C 5.125 -22.65625 5.078125 -22.601562 5.078125 -22.5 L 5.078125 -13.53125 C 5.078125 -13.4375 5.125 -13.390625 5.21875 -13.390625 L 8.40625 -13.390625 C 9.5 -13.390625 10.375 -13.804688 11.03125 -14.640625 C 11.695312 -15.484375 12.03125 -16.601562 12.03125 -18 C 12.03125 -19.394531 11.695312 -20.519531 11.03125 -21.375 C 10.375 -22.226562 9.5 -22.65625 8.40625 -22.65625 Z M 5.21875 -22.65625 "/></g></g></g><g fill="#f20162" fill-opacity="1"><g transform="translate(171.063175, 180.341429)"><g><path d="M 2.90625 0 C 2.675781 0 2.5625 -0.117188 2.5625 -0.359375 L 2.5625 -24.5 C 2.5625 -24.726562 2.675781 -24.84375 2.90625 -24.84375 L 4.71875 -24.84375 C 4.957031 -24.84375 5.078125 -24.726562 5.078125 -24.5 L 5.078125 -0.359375 C 5.078125 -0.117188 4.957031 0 4.71875 0 Z M 2.90625 0 "/></g></g></g><g fill="#f20162" fill-opacity="1"><g transform="translate(178.694112, 180.341429)"><g/></g></g><g fill="#f20162" fill-opacity="1"><g transform="translate(185.792661, 180.341429)"><g><path d="M 2.90625 0 C 2.675781 0 2.5625 -0.117188 2.5625 -0.359375 L 2.5625 -24.5 C 2.5625 -24.726562 2.675781 -24.84375 2.90625 -24.84375 L 4.71875 -24.84375 C 4.957031 -24.84375 5.078125 -24.726562 5.078125 -24.5 L 5.078125 -2.34375 C 5.078125 -2.25 5.125 -2.203125 5.21875 -2.203125 L 13.34375 -2.203125 C 13.582031 -2.203125 13.703125 -2.082031 13.703125 -1.84375 L 13.703125 -0.359375 C 13.703125 -0.117188 13.582031 0 13.34375 0 Z M 2.90625 0 "/></g></g></g><g fill="#f20162" fill-opacity="1"><g transform="translate(199.847777, 180.341429)"><g><path d="M 11.921875 0 C 11.710938 0 11.582031 -0.101562 11.53125 -0.3125 L 10.65625 -4.71875 C 10.65625 -4.769531 10.632812 -4.804688 10.59375 -4.828125 C 10.5625 -4.847656 10.519531 -4.859375 10.46875 -4.859375 L 4.046875 -4.859375 C 3.992188 -4.859375 3.953125 -4.847656 3.921875 -4.828125 C 3.890625 -4.804688 3.875 -4.769531 3.875 -4.71875 L 2.984375 -0.3125 C 2.960938 -0.101562 2.832031 0 2.59375 0 L 0.78125 0 C 0.664062 0 0.578125 -0.0351562 0.515625 -0.109375 C 0.453125 -0.179688 0.4375 -0.273438 0.46875 -0.390625 L 5.78125 -24.53125 C 5.832031 -24.738281 5.960938 -24.84375 6.171875 -24.84375 L 8.3125 -24.84375 C 8.539062 -24.84375 8.671875 -24.738281 8.703125 -24.53125 L 14.09375 -0.390625 L 14.09375 -0.3125 C 14.09375 -0.101562 13.988281 0 13.78125 0 Z M 4.328125 -7.0625 C 4.328125 -6.96875 4.363281 -6.921875 4.4375 -6.921875 L 10.046875 -6.921875 C 10.117188 -6.921875 10.15625 -6.96875 10.15625 -7.0625 L 7.3125 -21.015625 C 7.289062 -21.085938 7.265625 -21.125 7.234375 -21.125 C 7.210938 -21.125 7.191406 -21.085938 7.171875 -21.015625 Z M 4.328125 -7.0625 "/></g></g></g><g fill="#f20162" fill-opacity="1"><g transform="translate(214.399783, 180.341429)"><g><path d="M 12.5 -24.5 C 12.5 -24.726562 12.613281 -24.84375 12.84375 -24.84375 L 14.625 -24.84375 C 14.863281 -24.84375 14.984375 -24.726562 14.984375 -24.5 L 14.984375 -0.359375 C 14.984375 -0.117188 14.863281 0 14.625 0 L 12.53125 0 C 12.34375 0 12.210938 -0.09375 12.140625 -0.28125 L 5.21875 -18.640625 C 5.195312 -18.710938 5.160156 -18.738281 5.109375 -18.71875 C 5.066406 -18.707031 5.046875 -18.671875 5.046875 -18.609375 L 5.078125 -0.359375 C 5.078125 -0.117188 4.957031 0 4.71875 0 L 2.90625 0 C 2.675781 0 2.5625 -0.117188 2.5625 -0.359375 L 2.5625 -24.5 C 2.5625 -24.726562 2.675781 -24.84375 2.90625 -24.84375 L 4.96875 -24.84375 C 5.15625 -24.84375 5.285156 -24.75 5.359375 -24.5625 L 12.3125 -6.171875 C 12.34375 -6.109375 12.378906 -6.082031 12.421875 -6.09375 C 12.472656 -6.101562 12.5 -6.144531 12.5 -6.21875 Z M 12.5 -24.5 "/></g></g></g><g fill="#f20162" fill-opacity="1"><g transform="translate(231.897694, 180.341429)"><g><path d="M 2.90625 0 C 2.675781 0 2.5625 -0.117188 2.5625 -0.359375 L 2.5625 -24.5 C 2.5625 -24.726562 2.675781 -24.84375 2.90625 -24.84375 L 4.71875 -24.84375 C 4.957031 -24.84375 5.078125 -24.726562 5.078125 -24.5 L 5.078125 -13 C 5.078125 -12.925781 5.097656 -12.875 5.140625 -12.84375 C 5.191406 -12.820312 5.226562 -12.847656 5.25 -12.921875 L 12.109375 -24.59375 C 12.222656 -24.757812 12.363281 -24.84375 12.53125 -24.84375 L 14.515625 -24.84375 C 14.660156 -24.84375 14.753906 -24.800781 14.796875 -24.71875 C 14.847656 -24.632812 14.835938 -24.535156 14.765625 -24.421875 L 9.234375 -14.796875 C 9.179688 -14.703125 9.164062 -14.632812 9.1875 -14.59375 L 15.296875 -0.421875 L 15.34375 -0.28125 C 15.34375 -0.09375 15.234375 0 15.015625 0 L 13 0 C 12.800781 0 12.671875 -0.09375 12.609375 -0.28125 L 7.484375 -12.359375 C 7.460938 -12.453125 7.40625 -12.453125 7.3125 -12.359375 L 5.109375 -8.953125 C 5.085938 -8.921875 5.078125 -8.859375 5.078125 -8.765625 L 5.078125 -0.359375 C 5.078125 -0.117188 4.957031 0 4.71875 0 Z M 2.90625 0 "/></g></g></g><g fill="#f20162" fill-opacity="1"><g transform="translate(247.940391, 180.341429)"><g><path d="M 11.921875 0 C 11.710938 0 11.582031 -0.101562 11.53125 -0.3125 L 10.65625 -4.71875 C 10.65625 -4.769531 10.632812 -4.804688 10.59375 -4.828125 C 10.5625 -4.847656 10.519531 -4.859375 10.46875 -4.859375 L 4.046875 -4.859375 C 3.992188 -4.859375 3.953125 -4.847656 3.921875 -4.828125 C 3.890625 -4.804688 3.875 -4.769531 3.875 -4.71875 L 2.984375 -0.3125 C 2.960938 -0.101562 2.832031 0 2.59375 0 L 0.78125 0 C 0.664062 0 0.578125 -0.0351562 0.515625 -0.109375 C 0.453125 -0.179688 0.4375 -0.273438 0.46875 -0.390625 L 5.78125 -24.53125 C 5.832031 -24.738281 5.960938 -24.84375 6.171875 -24.84375 L 8.3125 -24.84375 C 8.539062 -24.84375 8.671875 -24.738281 8.703125 -24.53125 L 14.09375 -0.390625 L 14.09375 -0.3125 C 14.09375 -0.101562 13.988281 0 13.78125 0 Z M 4.328125 -7.0625 C 4.328125 -6.96875 4.363281 -6.921875 4.4375 -6.921875 L 10.046875 -6.921875 C 10.117188 -6.921875 10.15625 -6.96875 10.15625 -7.0625 L 7.3125 -21.015625 C 7.289062 -21.085938 7.265625 -21.125 7.234375 -21.125 C 7.210938 -21.125 7.191406 -21.085938 7.171875 -21.015625 Z M 4.328125 -7.0625 "/></g></g></g><g fill="#f20162" fill-opacity="1"><g transform="translate(262.503473, 180.341429)"><g/></g></g><g fill="#f20162" fill-opacity="1"><g transform="translate(269.602023, 180.341429)"><g/></g></g><g fill="#f20162" fill-opacity="1"><g transform="translate(140.574941, 206.040936)"><g><path d="M 4.296875 0.15625 C 3.316406 0.15625 2.53125 -0.140625 1.9375 -0.734375 C 1.34375 -1.335938 1.046875 -2.144531 1.046875 -3.15625 L 1.046875 -10.234375 C 1.046875 -11.222656 1.34375 -12.015625 1.9375 -12.609375 C 2.53125 -13.210938 3.316406 -13.515625 4.296875 -13.515625 C 5.285156 -13.515625 6.078125 -13.21875 6.671875 -12.625 C 7.265625 -12.039062 7.5625 -11.242188 7.5625 -10.234375 L 7.5625 -9.90625 C 7.5625 -9.78125 7.5 -9.71875 7.375 -9.71875 L 6.375 -9.65625 C 6.25 -9.65625 6.1875 -9.722656 6.1875 -9.859375 L 6.1875 -10.328125 C 6.1875 -10.929688 6.015625 -11.414062 5.671875 -11.78125 C 5.328125 -12.144531 4.867188 -12.328125 4.296875 -12.328125 C 3.734375 -12.328125 3.273438 -12.144531 2.921875 -11.78125 C 2.578125 -11.414062 2.40625 -10.929688 2.40625 -10.328125 L 2.40625 -3.03125 C 2.40625 -2.4375 2.578125 -1.953125 2.921875 -1.578125 C 3.273438 -1.210938 3.734375 -1.03125 4.296875 -1.03125 C 4.867188 -1.03125 5.328125 -1.210938 5.671875 -1.578125 C 6.015625 -1.953125 6.1875 -2.4375 6.1875 -3.03125 L 6.1875 -3.515625 C 6.1875 -3.640625 6.25 -3.703125 6.375 -3.703125 L 7.375 -3.640625 C 7.5 -3.640625 7.5625 -3.578125 7.5625 -3.453125 L 7.5625 -3.15625 C 7.5625 -2.144531 7.257812 -1.335938 6.65625 -0.734375 C 6.0625 -0.140625 5.273438 0.15625 4.296875 0.15625 Z M 4.296875 0.15625 "/></g></g></g><g fill="#f20162" fill-opacity="1"><g transform="translate(149.08052, 206.040936)"><g><path d="M 3.984375 -9.8125 C 4.878906 -9.8125 5.59375 -9.519531 6.125 -8.9375 C 6.664062 -8.363281 6.9375 -7.59375 6.9375 -6.625 L 6.9375 -0.1875 C 6.9375 -0.0625 6.867188 0 6.734375 0 L 5.765625 0 C 5.640625 0 5.578125 -0.0625 5.578125 -0.1875 L 5.578125 -0.765625 C 5.578125 -0.785156 5.566406 -0.800781 5.546875 -0.8125 C 5.523438 -0.820312 5.503906 -0.8125 5.484375 -0.78125 C 5.015625 -0.15625 4.304688 0.15625 3.359375 0.15625 C 2.660156 0.15625 2.050781 -0.0390625 1.53125 -0.4375 C 1.019531 -0.84375 0.765625 -1.554688 0.765625 -2.578125 C 0.765625 -3.660156 1.078125 -4.453125 1.703125 -4.953125 C 2.328125 -5.453125 3.144531 -5.703125 4.15625 -5.703125 L 5.5 -5.703125 C 5.550781 -5.703125 5.578125 -5.726562 5.578125 -5.78125 L 5.578125 -6.53125 C 5.578125 -7.164062 5.429688 -7.671875 5.140625 -8.046875 C 4.847656 -8.429688 4.453125 -8.625 3.953125 -8.625 C 3.566406 -8.625 3.238281 -8.492188 2.96875 -8.234375 C 2.695312 -7.984375 2.535156 -7.664062 2.484375 -7.28125 C 2.484375 -7.144531 2.421875 -7.078125 2.296875 -7.078125 L 1.21875 -7.109375 C 1.15625 -7.109375 1.109375 -7.125 1.078125 -7.15625 C 1.046875 -7.195312 1.035156 -7.242188 1.046875 -7.296875 C 1.109375 -8.046875 1.410156 -8.648438 1.953125 -9.109375 C 2.503906 -9.578125 3.179688 -9.8125 3.984375 -9.8125 Z M 3.640625 -1.03125 C 4.171875 -1.03125 4.625 -1.195312 5 -1.53125 C 5.382812 -1.875 5.578125 -2.34375 5.578125 -2.9375 L 5.578125 -4.546875 C 5.578125 -4.597656 5.550781 -4.625 5.5 -4.625 L 4.140625 -4.625 C 3.535156 -4.625 3.050781 -4.457031 2.6875 -4.125 C 2.332031 -3.800781 2.15625 -3.320312 2.15625 -2.6875 C 2.15625 -2.132812 2.289062 -1.71875 2.5625 -1.4375 C 2.84375 -1.164062 3.203125 -1.03125 3.640625 -1.03125 Z M 3.640625 -1.03125 "/></g></g></g><g fill="#f20162" fill-opacity="1"><g transform="translate(156.956771, 206.040936)"><g><path d="M 4.609375 -9.796875 C 5.378906 -9.796875 5.976562 -9.523438 6.40625 -8.984375 C 6.832031 -8.453125 7.046875 -7.710938 7.046875 -6.765625 L 7.046875 -0.1875 C 7.046875 -0.0625 6.984375 0 6.859375 0 L 5.875 0 C 5.75 0 5.6875 -0.0625 5.6875 -0.1875 L 5.6875 -6.640625 C 5.6875 -7.265625 5.550781 -7.75 5.28125 -8.09375 C 5.007812 -8.4375 4.628906 -8.609375 4.140625 -8.609375 C 3.628906 -8.609375 3.226562 -8.421875 2.9375 -8.046875 C 2.65625 -7.679688 2.515625 -7.179688 2.515625 -6.546875 L 2.515625 -0.1875 C 2.515625 -0.0625 2.453125 0 2.328125 0 L 1.359375 0 C 1.234375 0 1.171875 -0.0625 1.171875 -0.1875 L 1.171875 -9.46875 C 1.171875 -9.59375 1.234375 -9.65625 1.359375 -9.65625 L 2.328125 -9.65625 C 2.453125 -9.65625 2.515625 -9.59375 2.515625 -9.46875 L 2.515625 -8.859375 C 2.515625 -8.835938 2.523438 -8.816406 2.546875 -8.796875 C 2.578125 -8.785156 2.597656 -8.800781 2.609375 -8.84375 C 2.835938 -9.15625 3.128906 -9.390625 3.484375 -9.546875 C 3.835938 -9.710938 4.210938 -9.796875 4.609375 -9.796875 Z M 4.609375 -9.796875 "/></g></g></g><g fill="#f20162" fill-opacity="1"><g transform="translate(165.042804, 206.040936)"><g><path d="M 3.9375 0.15625 C 3.03125 0.15625 2.304688 -0.109375 1.765625 -0.640625 C 1.222656 -1.179688 0.953125 -1.890625 0.953125 -2.765625 L 0.953125 -6.890625 C 0.953125 -7.753906 1.222656 -8.457031 1.765625 -9 C 2.316406 -9.539062 3.039062 -9.8125 3.9375 -9.8125 C 4.53125 -9.8125 5.054688 -9.691406 5.515625 -9.453125 C 5.972656 -9.210938 6.328125 -8.890625 6.578125 -8.484375 C 6.828125 -8.085938 6.953125 -7.644531 6.953125 -7.15625 L 6.953125 -6.96875 C 6.953125 -6.84375 6.890625 -6.78125 6.765625 -6.78125 L 5.78125 -6.734375 C 5.65625 -6.734375 5.59375 -6.800781 5.59375 -6.9375 L 5.59375 -7.0625 C 5.59375 -7.476562 5.4375 -7.84375 5.125 -8.15625 C 4.8125 -8.46875 4.414062 -8.625 3.9375 -8.625 C 3.445312 -8.625 3.050781 -8.457031 2.75 -8.125 C 2.457031 -7.789062 2.3125 -7.347656 2.3125 -6.796875 L 2.3125 -2.859375 C 2.3125 -2.316406 2.457031 -1.875 2.75 -1.53125 C 3.050781 -1.195312 3.445312 -1.03125 3.9375 -1.03125 C 4.414062 -1.03125 4.8125 -1.1875 5.125 -1.5 C 5.4375 -1.8125 5.59375 -2.175781 5.59375 -2.59375 L 5.59375 -2.734375 C 5.59375 -2.859375 5.65625 -2.921875 5.78125 -2.921875 L 6.765625 -2.90625 C 6.890625 -2.90625 6.953125 -2.84375 6.953125 -2.71875 L 6.953125 -2.5 C 6.953125 -1.738281 6.671875 -1.101562 6.109375 -0.59375 C 5.554688 -0.09375 4.832031 0.15625 3.9375 0.15625 Z M 3.9375 0.15625 "/></g></g></g><g fill="#f20162" fill-opacity="1"><g transform="translate(172.709271, 206.040936)"><g><path d="M 6.9375 -4.5 C 6.9375 -4.375 6.867188 -4.3125 6.734375 -4.3125 L 2.390625 -4.3125 C 2.335938 -4.3125 2.3125 -4.285156 2.3125 -4.234375 L 2.3125 -2.84375 C 2.3125 -2.3125 2.457031 -1.875 2.75 -1.53125 C 3.050781 -1.195312 3.445312 -1.03125 3.9375 -1.03125 C 4.34375 -1.03125 4.6875 -1.15625 4.96875 -1.40625 C 5.257812 -1.65625 5.445312 -1.976562 5.53125 -2.375 C 5.570312 -2.488281 5.644531 -2.546875 5.75 -2.546875 L 6.703125 -2.5 C 6.753906 -2.5 6.796875 -2.476562 6.828125 -2.4375 C 6.867188 -2.40625 6.882812 -2.359375 6.875 -2.296875 C 6.769531 -1.546875 6.457031 -0.945312 5.9375 -0.5 C 5.425781 -0.0625 4.757812 0.15625 3.9375 0.15625 C 3.03125 0.15625 2.304688 -0.109375 1.765625 -0.640625 C 1.222656 -1.179688 0.953125 -1.890625 0.953125 -2.765625 L 0.953125 -6.890625 C 0.953125 -7.753906 1.222656 -8.457031 1.765625 -9 C 2.304688 -9.539062 3.03125 -9.8125 3.9375 -9.8125 C 4.851562 -9.8125 5.582031 -9.539062 6.125 -9 C 6.664062 -8.457031 6.9375 -7.753906 6.9375 -6.890625 Z M 3.9375 -8.625 C 3.445312 -8.625 3.050781 -8.457031 2.75 -8.125 C 2.457031 -7.789062 2.3125 -7.347656 2.3125 -6.796875 L 2.3125 -5.515625 C 2.3125 -5.460938 2.335938 -5.4375 2.390625 -5.4375 L 5.515625 -5.4375 C 5.566406 -5.4375 5.59375 -5.460938 5.59375 -5.515625 L 5.59375 -6.796875 C 5.59375 -7.347656 5.4375 -7.789062 5.125 -8.125 C 4.820312 -8.457031 4.425781 -8.625 3.9375 -8.625 Z M 3.9375 -8.625 "/></g></g></g><g fill="#f20162" fill-opacity="1"><g transform="translate(180.471084, 206.040936)"><g><path d="M 4.4375 -9.75 C 4.75 -9.75 5.019531 -9.679688 5.25 -9.546875 C 5.34375 -9.492188 5.375 -9.410156 5.34375 -9.296875 L 5.109375 -8.3125 C 5.097656 -8.195312 5.023438 -8.15625 4.890625 -8.1875 C 4.734375 -8.269531 4.539062 -8.3125 4.3125 -8.3125 C 4.207031 -8.3125 4.132812 -8.300781 4.09375 -8.28125 C 3.632812 -8.257812 3.253906 -8.019531 2.953125 -7.5625 C 2.660156 -7.113281 2.515625 -6.566406 2.515625 -5.921875 L 2.515625 -0.1875 C 2.515625 -0.0625 2.453125 0 2.328125 0 L 1.359375 0 C 1.234375 0 1.171875 -0.0625 1.171875 -0.1875 L 1.171875 -9.46875 C 1.171875 -9.59375 1.234375 -9.65625 1.359375 -9.65625 L 2.328125 -9.65625 C 2.453125 -9.65625 2.515625 -9.59375 2.515625 -9.46875 L 2.515625 -8.328125 C 2.515625 -8.285156 2.523438 -8.265625 2.546875 -8.265625 C 2.566406 -8.265625 2.585938 -8.28125 2.609375 -8.3125 C 2.984375 -9.269531 3.59375 -9.75 4.4375 -9.75 Z M 4.4375 -9.75 "/></g></g></g><g fill="#f20162" fill-opacity="1"><g transform="translate(186.039761, 206.040936)"><g/></g></g><g fill="#f20162" fill-opacity="1"><g transform="translate(189.853922, 206.040936)"><g><path d="M 3.640625 0 C 3.523438 0 3.457031 -0.0546875 3.4375 -0.171875 L 0.671875 -13.15625 L 0.671875 -13.1875 C 0.671875 -13.300781 0.726562 -13.359375 0.84375 -13.359375 L 1.90625 -13.359375 C 2.03125 -13.359375 2.101562 -13.300781 2.125 -13.1875 L 4.1875 -2.515625 C 4.195312 -2.492188 4.207031 -2.484375 4.21875 -2.484375 C 4.226562 -2.484375 4.242188 -2.492188 4.265625 -2.515625 L 6.296875 -13.1875 C 6.328125 -13.300781 6.398438 -13.359375 6.515625 -13.359375 L 7.546875 -13.359375 C 7.679688 -13.359375 7.738281 -13.289062 7.71875 -13.15625 L 4.9375 -0.171875 C 4.925781 -0.0546875 4.859375 0 4.734375 0 Z M 3.640625 0 "/></g></g></g><g fill="#f20162" fill-opacity="1"><g transform="translate(198.22601, 206.040936)"><g><path d="M 1.984375 -11.421875 C 1.671875 -11.421875 1.414062 -11.519531 1.21875 -11.71875 C 1.019531 -11.925781 0.921875 -12.179688 0.921875 -12.484375 C 0.921875 -12.804688 1.019531 -13.066406 1.21875 -13.265625 C 1.414062 -13.460938 1.671875 -13.5625 1.984375 -13.5625 C 2.285156 -13.5625 2.535156 -13.460938 2.734375 -13.265625 C 2.929688 -13.066406 3.03125 -12.804688 3.03125 -12.484375 C 3.03125 -12.179688 2.929688 -11.925781 2.734375 -11.71875 C 2.535156 -11.519531 2.285156 -11.421875 1.984375 -11.421875 Z M 1.515625 0 C 1.378906 0 1.3125 -0.0625 1.3125 -0.1875 L 1.3125 -9.46875 C 1.3125 -9.59375 1.378906 -9.65625 1.515625 -9.65625 L 2.484375 -9.65625 C 2.609375 -9.65625 2.671875 -9.59375 2.671875 -9.46875 L 2.671875 -0.1875 C 2.671875 -0.0625 2.609375 0 2.484375 0 Z M 1.515625 0 "/></g></g></g><g fill="#f20162" fill-opacity="1"><g transform="translate(202.192735, 206.040936)"><g><path d="M 3.9375 0.15625 C 3.03125 0.15625 2.304688 -0.109375 1.765625 -0.640625 C 1.222656 -1.179688 0.953125 -1.890625 0.953125 -2.765625 L 0.953125 -6.890625 C 0.953125 -7.753906 1.222656 -8.457031 1.765625 -9 C 2.316406 -9.539062 3.039062 -9.8125 3.9375 -9.8125 C 4.53125 -9.8125 5.054688 -9.691406 5.515625 -9.453125 C 5.972656 -9.210938 6.328125 -8.890625 6.578125 -8.484375 C 6.828125 -8.085938 6.953125 -7.644531 6.953125 -7.15625 L 6.953125 -6.96875 C 6.953125 -6.84375 6.890625 -6.78125 6.765625 -6.78125 L 5.78125 -6.734375 C 5.65625 -6.734375 5.59375 -6.800781 5.59375 -6.9375 L 5.59375 -7.0625 C 5.59375 -7.476562 5.4375 -7.84375 5.125 -8.15625 C 4.8125 -8.46875 4.414062 -8.625 3.9375 -8.625 C 3.445312 -8.625 3.050781 -8.457031 2.75 -8.125 C 2.457031 -7.789062 2.3125 -7.347656 2.3125 -6.796875 L 2.3125 -2.859375 C 2.3125 -2.316406 2.457031 -1.875 2.75 -1.53125 C 3.050781 -1.195312 3.445312 -1.03125 3.9375 -1.03125 C 4.414062 -1.03125 4.8125 -1.1875 5.125 -1.5 C 5.4375 -1.8125 5.59375 -2.175781 5.59375 -2.59375 L 5.59375 -2.734375 C 5.59375 -2.859375 5.65625 -2.921875 5.78125 -2.921875 L 6.765625 -2.90625 C 6.890625 -2.90625 6.953125 -2.84375 6.953125 -2.71875 L 6.953125 -2.5 C 6.953125 -1.738281 6.671875 -1.101562 6.109375 -0.59375 C 5.554688 -0.09375 4.832031 0.15625 3.9375 0.15625 Z M 3.9375 0.15625 "/></g></g></g><g fill="#f20162" fill-opacity="1"><g transform="translate(209.859202, 206.040936)"><g><path d="M 4.5625 -8.84375 C 4.5625 -8.71875 4.5 -8.65625 4.375 -8.65625 L 2.921875 -8.65625 C 2.867188 -8.65625 2.84375 -8.628906 2.84375 -8.578125 L 2.84375 -2.734375 C 2.84375 -2.148438 2.941406 -1.742188 3.140625 -1.515625 C 3.347656 -1.296875 3.664062 -1.191406 4.09375 -1.203125 L 4.28125 -1.203125 C 4.40625 -1.203125 4.46875 -1.140625 4.46875 -1.015625 L 4.46875 -0.1875 C 4.46875 -0.0625 4.40625 0 4.28125 0 L 3.796875 0 C 3.046875 0 2.476562 -0.160156 2.09375 -0.484375 C 1.707031 -0.804688 1.515625 -1.421875 1.515625 -2.328125 L 1.515625 -8.578125 C 1.515625 -8.628906 1.488281 -8.65625 1.4375 -8.65625 L 0.6875 -8.65625 C 0.5625 -8.65625 0.5 -8.71875 0.5 -8.84375 L 0.5 -9.46875 C 0.5 -9.59375 0.5625 -9.65625 0.6875 -9.65625 L 1.4375 -9.65625 C 1.488281 -9.65625 1.515625 -9.679688 1.515625 -9.734375 L 1.515625 -11.875 C 1.515625 -12 1.578125 -12.0625 1.703125 -12.0625 L 2.65625 -12.0625 C 2.78125 -12.0625 2.84375 -12 2.84375 -11.875 L 2.84375 -9.734375 C 2.84375 -9.679688 2.867188 -9.65625 2.921875 -9.65625 L 4.375 -9.65625 C 4.5 -9.65625 4.5625 -9.59375 4.5625 -9.46875 Z M 4.5625 -8.84375 "/></g></g></g><g fill="#f20162" fill-opacity="1"><g transform="translate(214.951114, 206.040936)"><g><path d="M 1.984375 -11.421875 C 1.671875 -11.421875 1.414062 -11.519531 1.21875 -11.71875 C 1.019531 -11.925781 0.921875 -12.179688 0.921875 -12.484375 C 0.921875 -12.804688 1.019531 -13.066406 1.21875 -13.265625 C 1.414062 -13.460938 1.671875 -13.5625 1.984375 -13.5625 C 2.285156 -13.5625 2.535156 -13.460938 2.734375 -13.265625 C 2.929688 -13.066406 3.03125 -12.804688 3.03125 -12.484375 C 3.03125 -12.179688 2.929688 -11.925781 2.734375 -11.71875 C 2.535156 -11.519531 2.285156 -11.421875 1.984375 -11.421875 Z M 1.515625 0 C 1.378906 0 1.3125 -0.0625 1.3125 -0.1875 L 1.3125 -9.46875 C 1.3125 -9.59375 1.378906 -9.65625 1.515625 -9.65625 L 2.484375 -9.65625 C 2.609375 -9.65625 2.671875 -9.59375 2.671875 -9.46875 L 2.671875 -0.1875 C 2.671875 -0.0625 2.609375 0 2.484375 0 Z M 1.515625 0 "/></g></g></g><g fill="#f20162" fill-opacity="1"><g transform="translate(218.917839, 206.040936)"><g><path d="M 8.890625 -9.796875 C 9.660156 -9.796875 10.253906 -9.515625 10.671875 -8.953125 C 11.085938 -8.390625 11.296875 -7.613281 11.296875 -6.625 L 11.296875 -0.1875 C 11.296875 -0.0625 11.234375 0 11.109375 0 L 10.15625 0 C 10.03125 0 9.96875 -0.0625 9.96875 -0.1875 L 9.96875 -6.515625 C 9.96875 -7.160156 9.828125 -7.671875 9.546875 -8.046875 C 9.273438 -8.421875 8.921875 -8.609375 8.484375 -8.609375 C 7.992188 -8.609375 7.609375 -8.421875 7.328125 -8.046875 C 7.046875 -7.679688 6.90625 -7.179688 6.90625 -6.546875 L 6.90625 -0.1875 C 6.90625 -0.0625 6.84375 0 6.71875 0 L 5.75 0 C 5.625 0 5.5625 -0.0625 5.5625 -0.1875 L 5.5625 -6.515625 C 5.5625 -7.160156 5.421875 -7.671875 5.140625 -8.046875 C 4.867188 -8.421875 4.519531 -8.609375 4.09375 -8.609375 C 3.601562 -8.609375 3.210938 -8.421875 2.921875 -8.046875 C 2.640625 -7.679688 2.5 -7.179688 2.5 -6.546875 L 2.5 -0.1875 C 2.5 -0.0625 2.4375 0 2.3125 0 L 1.359375 0 C 1.234375 0 1.171875 -0.0625 1.171875 -0.1875 L 1.171875 -9.46875 C 1.171875 -9.59375 1.234375 -9.65625 1.359375 -9.65625 L 2.3125 -9.65625 C 2.4375 -9.65625 2.5 -9.59375 2.5 -9.46875 L 2.5 -8.875 C 2.5 -8.851562 2.507812 -8.835938 2.53125 -8.828125 C 2.550781 -8.828125 2.570312 -8.835938 2.59375 -8.859375 C 2.832031 -9.179688 3.117188 -9.414062 3.453125 -9.5625 C 3.785156 -9.71875 4.132812 -9.796875 4.5 -9.796875 C 4.988281 -9.796875 5.410156 -9.675781 5.765625 -9.4375 C 6.117188 -9.207031 6.394531 -8.875 6.59375 -8.4375 C 6.601562 -8.414062 6.617188 -8.40625 6.640625 -8.40625 C 6.671875 -8.40625 6.691406 -8.421875 6.703125 -8.453125 C 6.929688 -8.910156 7.242188 -9.25 7.640625 -9.46875 C 8.035156 -9.6875 8.453125 -9.796875 8.890625 -9.796875 Z M 8.890625 -9.796875 "/></g></g></g><g fill="#f20162" fill-opacity="1"><g transform="translate(231.275725, 206.040936)"><g><path d="M 3.6875 0.09375 C 2.8125 0.09375 2.109375 -0.128906 1.578125 -0.578125 C 1.046875 -1.035156 0.78125 -1.640625 0.78125 -2.390625 L 0.78125 -2.515625 C 0.78125 -2.648438 0.84375 -2.71875 0.96875 -2.71875 L 1.890625 -2.71875 C 2.015625 -2.71875 2.078125 -2.648438 2.078125 -2.515625 L 2.078125 -2.40625 C 2.078125 -2 2.226562 -1.65625 2.53125 -1.375 C 2.832031 -1.09375 3.222656 -0.953125 3.703125 -0.953125 C 4.160156 -0.953125 4.53125 -1.09375 4.8125 -1.375 C 5.09375 -1.65625 5.234375 -2.007812 5.234375 -2.4375 C 5.234375 -2.769531 5.144531 -3.046875 4.96875 -3.265625 C 4.789062 -3.492188 4.582031 -3.671875 4.34375 -3.796875 C 4.101562 -3.921875 3.75 -4.085938 3.28125 -4.296875 C 2.789062 -4.503906 2.378906 -4.703125 2.046875 -4.890625 C 1.722656 -5.085938 1.441406 -5.367188 1.203125 -5.734375 C 0.972656 -6.097656 0.859375 -6.5625 0.859375 -7.125 C 0.859375 -7.9375 1.109375 -8.578125 1.609375 -9.046875 C 2.117188 -9.515625 2.796875 -9.75 3.640625 -9.75 C 4.503906 -9.75 5.191406 -9.507812 5.703125 -9.03125 C 6.210938 -8.550781 6.46875 -7.910156 6.46875 -7.109375 L 6.46875 -7.046875 C 6.46875 -6.921875 6.40625 -6.859375 6.28125 -6.859375 L 5.40625 -6.859375 C 5.28125 -6.859375 5.21875 -6.921875 5.21875 -7.046875 L 5.21875 -7.15625 C 5.21875 -7.59375 5.070312 -7.953125 4.78125 -8.234375 C 4.5 -8.515625 4.128906 -8.65625 3.671875 -8.65625 C 3.210938 -8.65625 2.84375 -8.507812 2.5625 -8.21875 C 2.289062 -7.9375 2.15625 -7.582031 2.15625 -7.15625 C 2.15625 -6.851562 2.238281 -6.597656 2.40625 -6.390625 C 2.570312 -6.179688 2.773438 -6.007812 3.015625 -5.875 C 3.253906 -5.738281 3.59375 -5.578125 4.03125 -5.390625 C 4.550781 -5.160156 4.976562 -4.941406 5.3125 -4.734375 C 5.65625 -4.535156 5.953125 -4.25 6.203125 -3.875 C 6.460938 -3.507812 6.59375 -3.050781 6.59375 -2.5 C 6.59375 -1.707031 6.328125 -1.078125 5.796875 -0.609375 C 5.273438 -0.140625 4.570312 0.09375 3.6875 0.09375 Z M 3.6875 0.09375 "/></g></g></g><g fill="#f20162" fill-opacity="1"><g transform="translate(140.574941, 223.952408)"><g><path d="M 6.421875 0 C 6.304688 0 6.234375 -0.0546875 6.203125 -0.171875 L 5.734375 -2.546875 C 5.734375 -2.566406 5.722656 -2.582031 5.703125 -2.59375 C 5.679688 -2.601562 5.65625 -2.609375 5.625 -2.609375 L 2.171875 -2.609375 C 2.148438 -2.609375 2.128906 -2.601562 2.109375 -2.59375 C 2.085938 -2.582031 2.078125 -2.566406 2.078125 -2.546875 L 1.609375 -0.171875 C 1.585938 -0.0546875 1.515625 0 1.390625 0 L 0.421875 0 C 0.359375 0 0.3125 -0.015625 0.28125 -0.046875 C 0.25 -0.0859375 0.238281 -0.140625 0.25 -0.203125 L 3.109375 -13.1875 C 3.140625 -13.300781 3.210938 -13.359375 3.328125 -13.359375 L 4.46875 -13.359375 C 4.59375 -13.359375 4.660156 -13.300781 4.671875 -13.1875 L 7.578125 -0.203125 L 7.578125 -0.171875 C 7.578125 -0.0546875 7.519531 0 7.40625 0 Z M 2.328125 -3.796875 C 2.328125 -3.742188 2.347656 -3.71875 2.390625 -3.71875 L 5.40625 -3.71875 C 5.4375 -3.71875 5.453125 -3.742188 5.453125 -3.796875 L 3.9375 -11.296875 C 3.925781 -11.335938 3.910156 -11.359375 3.890625 -11.359375 C 3.878906 -11.359375 3.867188 -11.335938 3.859375 -11.296875 Z M 2.328125 -3.796875 "/></g></g></g><g fill="#f20162" fill-opacity="1"><g transform="translate(148.393972, 223.952408)"><g><path d="M 3.6875 0.09375 C 2.8125 0.09375 2.109375 -0.128906 1.578125 -0.578125 C 1.046875 -1.035156 0.78125 -1.640625 0.78125 -2.390625 L 0.78125 -2.515625 C 0.78125 -2.648438 0.84375 -2.71875 0.96875 -2.71875 L 1.890625 -2.71875 C 2.015625 -2.71875 2.078125 -2.648438 2.078125 -2.515625 L 2.078125 -2.40625 C 2.078125 -2 2.226562 -1.65625 2.53125 -1.375 C 2.832031 -1.09375 3.222656 -0.953125 3.703125 -0.953125 C 4.160156 -0.953125 4.53125 -1.09375 4.8125 -1.375 C 5.09375 -1.65625 5.234375 -2.007812 5.234375 -2.4375 C 5.234375 -2.769531 5.144531 -3.046875 4.96875 -3.265625 C 4.789062 -3.492188 4.582031 -3.671875 4.34375 -3.796875 C 4.101562 -3.921875 3.75 -4.085938 3.28125 -4.296875 C 2.789062 -4.503906 2.378906 -4.703125 2.046875 -4.890625 C 1.722656 -5.085938 1.441406 -5.367188 1.203125 -5.734375 C 0.972656 -6.097656 0.859375 -6.5625 0.859375 -7.125 C 0.859375 -7.9375 1.109375 -8.578125 1.609375 -9.046875 C 2.117188 -9.515625 2.796875 -9.75 3.640625 -9.75 C 4.503906 -9.75 5.191406 -9.507812 5.703125 -9.03125 C 6.210938 -8.550781 6.46875 -7.910156 6.46875 -7.109375 L 6.46875 -7.046875 C 6.46875 -6.921875 6.40625 -6.859375 6.28125 -6.859375 L 5.40625 -6.859375 C 5.28125 -6.859375 5.21875 -6.921875 5.21875 -7.046875 L 5.21875 -7.15625 C 5.21875 -7.59375 5.070312 -7.953125 4.78125 -8.234375 C 4.5 -8.515625 4.128906 -8.65625 3.671875 -8.65625 C 3.210938 -8.65625 2.84375 -8.507812 2.5625 -8.21875 C 2.289062 -7.9375 2.15625 -7.582031 2.15625 -7.15625 C 2.15625 -6.851562 2.238281 -6.597656 2.40625 -6.390625 C 2.570312 -6.179688 2.773438 -6.007812 3.015625 -5.875 C 3.253906 -5.738281 3.59375 -5.578125 4.03125 -5.390625 C 4.550781 -5.160156 4.976562 -4.941406 5.3125 -4.734375 C 5.65625 -4.535156 5.953125 -4.25 6.203125 -3.875 C 6.460938 -3.507812 6.59375 -3.050781 6.59375 -2.5 C 6.59375 -1.707031 6.328125 -1.078125 5.796875 -0.609375 C 5.273438 -0.140625 4.570312 0.09375 3.6875 0.09375 Z M 3.6875 0.09375 "/></g></g></g><g fill="#f20162" fill-opacity="1"><g transform="translate(155.526456, 223.952408)"><g><path d="M 3.6875 0.09375 C 2.8125 0.09375 2.109375 -0.128906 1.578125 -0.578125 C 1.046875 -1.035156 0.78125 -1.640625 0.78125 -2.390625 L 0.78125 -2.515625 C 0.78125 -2.648438 0.84375 -2.71875 0.96875 -2.71875 L 1.890625 -2.71875 C 2.015625 -2.71875 2.078125 -2.648438 2.078125 -2.515625 L 2.078125 -2.40625 C 2.078125 -2 2.226562 -1.65625 2.53125 -1.375 C 2.832031 -1.09375 3.222656 -0.953125 3.703125 -0.953125 C 4.160156 -0.953125 4.53125 -1.09375 4.8125 -1.375 C 5.09375 -1.65625 5.234375 -2.007812 5.234375 -2.4375 C 5.234375 -2.769531 5.144531 -3.046875 4.96875 -3.265625 C 4.789062 -3.492188 4.582031 -3.671875 4.34375 -3.796875 C 4.101562 -3.921875 3.75 -4.085938 3.28125 -4.296875 C 2.789062 -4.503906 2.378906 -4.703125 2.046875 -4.890625 C 1.722656 -5.085938 1.441406 -5.367188 1.203125 -5.734375 C 0.972656 -6.097656 0.859375 -6.5625 0.859375 -7.125 C 0.859375 -7.9375 1.109375 -8.578125 1.609375 -9.046875 C 2.117188 -9.515625 2.796875 -9.75 3.640625 -9.75 C 4.503906 -9.75 5.191406 -9.507812 5.703125 -9.03125 C 6.210938 -8.550781 6.46875 -7.910156 6.46875 -7.109375 L 6.46875 -7.046875 C 6.46875 -6.921875 6.40625 -6.859375 6.28125 -6.859375 L 5.40625 -6.859375 C 5.28125 -6.859375 5.21875 -6.921875 5.21875 -7.046875 L 5.21875 -7.15625 C 5.21875 -7.59375 5.070312 -7.953125 4.78125 -8.234375 C 4.5 -8.515625 4.128906 -8.65625 3.671875 -8.65625 C 3.210938 -8.65625 2.84375 -8.507812 2.5625 -8.21875 C 2.289062 -7.9375 2.15625 -7.582031 2.15625 -7.15625 C 2.15625 -6.851562 2.238281 -6.597656 2.40625 -6.390625 C 2.570312 -6.179688 2.773438 -6.007812 3.015625 -5.875 C 3.253906 -5.738281 3.59375 -5.578125 4.03125 -5.390625 C 4.550781 -5.160156 4.976562 -4.941406 5.3125 -4.734375 C 5.65625 -4.535156 5.953125 -4.25 6.203125 -3.875 C 6.460938 -3.507812 6.59375 -3.050781 6.59375 -2.5 C 6.59375 -1.707031 6.328125 -1.078125 5.796875 -0.609375 C 5.273438 -0.140625 4.570312 0.09375 3.6875 0.09375 Z M 3.6875 0.09375 "/></g></g></g><g fill="#f20162" fill-opacity="1"><g transform="translate(162.658939, 223.952408)"><g><path d="M 3.953125 0.15625 C 3.035156 0.15625 2.304688 -0.109375 1.765625 -0.640625 C 1.222656 -1.179688 0.953125 -1.890625 0.953125 -2.765625 L 0.953125 -6.875 C 0.953125 -7.738281 1.222656 -8.441406 1.765625 -8.984375 C 2.316406 -9.535156 3.046875 -9.8125 3.953125 -9.8125 C 4.867188 -9.8125 5.597656 -9.535156 6.140625 -8.984375 C 6.691406 -8.441406 6.96875 -7.738281 6.96875 -6.875 L 6.96875 -2.765625 C 6.96875 -1.890625 6.691406 -1.179688 6.140625 -0.640625 C 5.597656 -0.109375 4.867188 0.15625 3.953125 0.15625 Z M 3.953125 -1.046875 C 4.429688 -1.046875 4.828125 -1.210938 5.140625 -1.546875 C 5.453125 -1.878906 5.609375 -2.316406 5.609375 -2.859375 L 5.609375 -6.796875 C 5.609375 -7.347656 5.453125 -7.789062 5.140625 -8.125 C 4.828125 -8.457031 4.429688 -8.625 3.953125 -8.625 C 3.472656 -8.625 3.078125 -8.457031 2.765625 -8.125 C 2.460938 -7.789062 2.3125 -7.347656 2.3125 -6.796875 L 2.3125 -2.859375 C 2.3125 -2.316406 2.460938 -1.878906 2.765625 -1.546875 C 3.078125 -1.210938 3.472656 -1.046875 3.953125 -1.046875 Z M 3.953125 -1.046875 "/></g></g></g><g fill="#f20162" fill-opacity="1"><g transform="translate(170.573335, 223.952408)"><g><path d="M 3.9375 0.15625 C 3.03125 0.15625 2.304688 -0.109375 1.765625 -0.640625 C 1.222656 -1.179688 0.953125 -1.890625 0.953125 -2.765625 L 0.953125 -6.890625 C 0.953125 -7.753906 1.222656 -8.457031 1.765625 -9 C 2.316406 -9.539062 3.039062 -9.8125 3.9375 -9.8125 C 4.53125 -9.8125 5.054688 -9.691406 5.515625 -9.453125 C 5.972656 -9.210938 6.328125 -8.890625 6.578125 -8.484375 C 6.828125 -8.085938 6.953125 -7.644531 6.953125 -7.15625 L 6.953125 -6.96875 C 6.953125 -6.84375 6.890625 -6.78125 6.765625 -6.78125 L 5.78125 -6.734375 C 5.65625 -6.734375 5.59375 -6.800781 5.59375 -6.9375 L 5.59375 -7.0625 C 5.59375 -7.476562 5.4375 -7.84375 5.125 -8.15625 C 4.8125 -8.46875 4.414062 -8.625 3.9375 -8.625 C 3.445312 -8.625 3.050781 -8.457031 2.75 -8.125 C 2.457031 -7.789062 2.3125 -7.347656 2.3125 -6.796875 L 2.3125 -2.859375 C 2.3125 -2.316406 2.457031 -1.875 2.75 -1.53125 C 3.050781 -1.195312 3.445312 -1.03125 3.9375 -1.03125 C 4.414062 -1.03125 4.8125 -1.1875 5.125 -1.5 C 5.4375 -1.8125 5.59375 -2.175781 5.59375 -2.59375 L 5.59375 -2.734375 C 5.59375 -2.859375 5.65625 -2.921875 5.78125 -2.921875 L 6.765625 -2.90625 C 6.890625 -2.90625 6.953125 -2.84375 6.953125 -2.71875 L 6.953125 -2.5 C 6.953125 -1.738281 6.671875 -1.101562 6.109375 -0.59375 C 5.554688 -0.09375 4.832031 0.15625 3.9375 0.15625 Z M 3.9375 0.15625 "/></g></g></g><g fill="#f20162" fill-opacity="1"><g transform="translate(178.239802, 223.952408)"><g><path d="M 1.984375 -11.421875 C 1.671875 -11.421875 1.414062 -11.519531 1.21875 -11.71875 C 1.019531 -11.925781 0.921875 -12.179688 0.921875 -12.484375 C 0.921875 -12.804688 1.019531 -13.066406 1.21875 -13.265625 C 1.414062 -13.460938 1.671875 -13.5625 1.984375 -13.5625 C 2.285156 -13.5625 2.535156 -13.460938 2.734375 -13.265625 C 2.929688 -13.066406 3.03125 -12.804688 3.03125 -12.484375 C 3.03125 -12.179688 2.929688 -11.925781 2.734375 -11.71875 C 2.535156 -11.519531 2.285156 -11.421875 1.984375 -11.421875 Z M 1.515625 0 C 1.378906 0 1.3125 -0.0625 1.3125 -0.1875 L 1.3125 -9.46875 C 1.3125 -9.59375 1.378906 -9.65625 1.515625 -9.65625 L 2.484375 -9.65625 C 2.609375 -9.65625 2.671875 -9.59375 2.671875 -9.46875 L 2.671875 -0.1875 C 2.671875 -0.0625 2.609375 0 2.484375 0 Z M 1.515625 0 "/></g></g></g><g fill="#f20162" fill-opacity="1"><g transform="translate(182.206527, 223.952408)"><g><path d="M 3.984375 -9.8125 C 4.878906 -9.8125 5.59375 -9.519531 6.125 -8.9375 C 6.664062 -8.363281 6.9375 -7.59375 6.9375 -6.625 L 6.9375 -0.1875 C 6.9375 -0.0625 6.867188 0 6.734375 0 L 5.765625 0 C 5.640625 0 5.578125 -0.0625 5.578125 -0.1875 L 5.578125 -0.765625 C 5.578125 -0.785156 5.566406 -0.800781 5.546875 -0.8125 C 5.523438 -0.820312 5.503906 -0.8125 5.484375 -0.78125 C 5.015625 -0.15625 4.304688 0.15625 3.359375 0.15625 C 2.660156 0.15625 2.050781 -0.0390625 1.53125 -0.4375 C 1.019531 -0.84375 0.765625 -1.554688 0.765625 -2.578125 C 0.765625 -3.660156 1.078125 -4.453125 1.703125 -4.953125 C 2.328125 -5.453125 3.144531 -5.703125 4.15625 -5.703125 L 5.5 -5.703125 C 5.550781 -5.703125 5.578125 -5.726562 5.578125 -5.78125 L 5.578125 -6.53125 C 5.578125 -7.164062 5.429688 -7.671875 5.140625 -8.046875 C 4.847656 -8.429688 4.453125 -8.625 3.953125 -8.625 C 3.566406 -8.625 3.238281 -8.492188 2.96875 -8.234375 C 2.695312 -7.984375 2.535156 -7.664062 2.484375 -7.28125 C 2.484375 -7.144531 2.421875 -7.078125 2.296875 -7.078125 L 1.21875 -7.109375 C 1.15625 -7.109375 1.109375 -7.125 1.078125 -7.15625 C 1.046875 -7.195312 1.035156 -7.242188 1.046875 -7.296875 C 1.109375 -8.046875 1.410156 -8.648438 1.953125 -9.109375 C 2.503906 -9.578125 3.179688 -9.8125 3.984375 -9.8125 Z M 3.640625 -1.03125 C 4.171875 -1.03125 4.625 -1.195312 5 -1.53125 C 5.382812 -1.875 5.578125 -2.34375 5.578125 -2.9375 L 5.578125 -4.546875 C 5.578125 -4.597656 5.550781 -4.625 5.5 -4.625 L 4.140625 -4.625 C 3.535156 -4.625 3.050781 -4.457031 2.6875 -4.125 C 2.332031 -3.800781 2.15625 -3.320312 2.15625 -2.6875 C 2.15625 -2.132812 2.289062 -1.71875 2.5625 -1.4375 C 2.84375 -1.164062 3.203125 -1.03125 3.640625 -1.03125 Z M 3.640625 -1.03125 "/></g></g></g><g fill="#f20162" fill-opacity="1"><g transform="translate(190.082778, 223.952408)"><g><path d="M 4.5625 -8.84375 C 4.5625 -8.71875 4.5 -8.65625 4.375 -8.65625 L 2.921875 -8.65625 C 2.867188 -8.65625 2.84375 -8.628906 2.84375 -8.578125 L 2.84375 -2.734375 C 2.84375 -2.148438 2.941406 -1.742188 3.140625 -1.515625 C 3.347656 -1.296875 3.664062 -1.191406 4.09375 -1.203125 L 4.28125 -1.203125 C 4.40625 -1.203125 4.46875 -1.140625 4.46875 -1.015625 L 4.46875 -0.1875 C 4.46875 -0.0625 4.40625 0 4.28125 0 L 3.796875 0 C 3.046875 0 2.476562 -0.160156 2.09375 -0.484375 C 1.707031 -0.804688 1.515625 -1.421875 1.515625 -2.328125 L 1.515625 -8.578125 C 1.515625 -8.628906 1.488281 -8.65625 1.4375 -8.65625 L 0.6875 -8.65625 C 0.5625 -8.65625 0.5 -8.71875 0.5 -8.84375 L 0.5 -9.46875 C 0.5 -9.59375 0.5625 -9.65625 0.6875 -9.65625 L 1.4375 -9.65625 C 1.488281 -9.65625 1.515625 -9.679688 1.515625 -9.734375 L 1.515625 -11.875 C 1.515625 -12 1.578125 -12.0625 1.703125 -12.0625 L 2.65625 -12.0625 C 2.78125 -12.0625 2.84375 -12 2.84375 -11.875 L 2.84375 -9.734375 C 2.84375 -9.679688 2.867188 -9.65625 2.921875 -9.65625 L 4.375 -9.65625 C 4.5 -9.65625 4.5625 -9.59375 4.5625 -9.46875 Z M 4.5625 -8.84375 "/></g></g></g><g fill="#f20162" fill-opacity="1"><g transform="translate(195.174689, 223.952408)"><g><path d="M 1.984375 -11.421875 C 1.671875 -11.421875 1.414062 -11.519531 1.21875 -11.71875 C 1.019531 -11.925781 0.921875 -12.179688 0.921875 -12.484375 C 0.921875 -12.804688 1.019531 -13.066406 1.21875 -13.265625 C 1.414062 -13.460938 1.671875 -13.5625 1.984375 -13.5625 C 2.285156 -13.5625 2.535156 -13.460938 2.734375 -13.265625 C 2.929688 -13.066406 3.03125 -12.804688 3.03125 -12.484375 C 3.03125 -12.179688 2.929688 -11.925781 2.734375 -11.71875 C 2.535156 -11.519531 2.285156 -11.421875 1.984375 -11.421875 Z M 1.515625 0 C 1.378906 0 1.3125 -0.0625 1.3125 -0.1875 L 1.3125 -9.46875 C 1.3125 -9.59375 1.378906 -9.65625 1.515625 -9.65625 L 2.484375 -9.65625 C 2.609375 -9.65625 2.671875 -9.59375 2.671875 -9.46875 L 2.671875 -0.1875 C 2.671875 -0.0625 2.609375 0 2.484375 0 Z M 1.515625 0 "/></g></g></g><g fill="#f20162" fill-opacity="1"><g transform="translate(199.141414, 223.952408)"><g><path d="M 3.953125 0.15625 C 3.035156 0.15625 2.304688 -0.109375 1.765625 -0.640625 C 1.222656 -1.179688 0.953125 -1.890625 0.953125 -2.765625 L 0.953125 -6.875 C 0.953125 -7.738281 1.222656 -8.441406 1.765625 -8.984375 C 2.316406 -9.535156 3.046875 -9.8125 3.953125 -9.8125 C 4.867188 -9.8125 5.597656 -9.535156 6.140625 -8.984375 C 6.691406 -8.441406 6.96875 -7.738281 6.96875 -6.875 L 6.96875 -2.765625 C 6.96875 -1.890625 6.691406 -1.179688 6.140625 -0.640625 C 5.597656 -0.109375 4.867188 0.15625 3.953125 0.15625 Z M 3.953125 -1.046875 C 4.429688 -1.046875 4.828125 -1.210938 5.140625 -1.546875 C 5.453125 -1.878906 5.609375 -2.316406 5.609375 -2.859375 L 5.609375 -6.796875 C 5.609375 -7.347656 5.453125 -7.789062 5.140625 -8.125 C 4.828125 -8.457031 4.429688 -8.625 3.953125 -8.625 C 3.472656 -8.625 3.078125 -8.457031 2.765625 -8.125 C 2.460938 -7.789062 2.3125 -7.347656 2.3125 -6.796875 L 2.3125 -2.859375 C 2.3125 -2.316406 2.460938 -1.878906 2.765625 -1.546875 C 3.078125 -1.210938 3.472656 -1.046875 3.953125 -1.046875 Z M 3.953125 -1.046875 "/></g></g></g><g fill="#f20162" fill-opacity="1"><g transform="translate(207.05581, 223.952408)"><g><path d="M 4.609375 -9.796875 C 5.378906 -9.796875 5.976562 -9.523438 6.40625 -8.984375 C 6.832031 -8.453125 7.046875 -7.710938 7.046875 -6.765625 L 7.046875 -0.1875 C 7.046875 -0.0625 6.984375 0 6.859375 0 L 5.875 0 C 5.75 0 5.6875 -0.0625 5.6875 -0.1875 L 5.6875 -6.640625 C 5.6875 -7.265625 5.550781 -7.75 5.28125 -8.09375 C 5.007812 -8.4375 4.628906 -8.609375 4.140625 -8.609375 C 3.628906 -8.609375 3.226562 -8.421875 2.9375 -8.046875 C 2.65625 -7.679688 2.515625 -7.179688 2.515625 -6.546875 L 2.515625 -0.1875 C 2.515625 -0.0625 2.453125 0 2.328125 0 L 1.359375 0 C 1.234375 0 1.171875 -0.0625 1.171875 -0.1875 L 1.171875 -9.46875 C 1.171875 -9.59375 1.234375 -9.65625 1.359375 -9.65625 L 2.328125 -9.65625 C 2.453125 -9.65625 2.515625 -9.59375 2.515625 -9.46875 L 2.515625 -8.859375 C 2.515625 -8.835938 2.523438 -8.816406 2.546875 -8.796875 C 2.578125 -8.785156 2.597656 -8.800781 2.609375 -8.84375 C 2.835938 -9.15625 3.128906 -9.390625 3.484375 -9.546875 C 3.835938 -9.710938 4.210938 -9.796875 4.609375 -9.796875 Z M 4.609375 -9.796875 "/></g></g></g></svg>